<?xml version="1.0" encoding="UTF-8"?><svg xmlns="http://www.w3.org/2000/svg" viewBox="0 0 2938.296 674.158"><g id="a" style="isolation:isolate;"><g id="b"><path d="M828.836,197.919c-8.622-8.389-19.806-15.033-33.553-19.932-13.755-4.89-30.182-7.344-49.289-7.344-33.09,0-62.69,6.88-88.784,20.632-26.094,13.752-48.235,32.284-66.406,55.597-18.18,23.313-32.162,50.125-41.948,80.427-9.794,30.302-14.682,61.777-14.682,94.406,0,17.723,2.79,34.501,8.386,50.352,5.597,15.851,14.219,29.721,25.867,41.609,11.648,11.888,26.102,21.213,43.347,27.975,17.244,6.754,37.75,10.135,61.518,10.135,27.965,0,52.315-2.917,73.057-8.735,20.734-5.826,35.77-11.306,45.091-16.441l-5.597-55.242c-2.798,2.327-7.569,4.781-14.328,7.344-6.759,2.563-14.455,5.126-23.077,7.689-8.622,2.563-17.708,4.663-27.257,6.298-9.558,1.636-18.761,2.445-27.611,2.445-20.043,0-36.242-2.091-48.589-6.29-12.356-4.199-22.023-9.907-29.01-17.133-6.996-7.226-11.774-15.615-14.337-25.176s-3.843-19.704-3.843-30.429v-5.59c0-2.327.228-5.362.7-9.097,17.244-.927,35.534-1.981,54.877-3.145,19.343-1.164,38.45-3.373,57.329-6.644,18.871-3.263,37.042-7.689,54.523-13.288,17.48-5.59,32.744-13.516,45.791-23.777,13.047-10.253,23.54-22.959,31.463-38.11,7.923-15.151,11.884-33.683,11.884-55.597,0-11.652-2.099-22.959-6.296-33.92-4.197-10.952-10.603-20.623-19.225-29.021ZM777.103,307.712c-9.086,10.725-21.787,19.24-38.096,25.53-16.317,6.29-35.66,10.716-58.029,13.279-22.369,2.563-47.072,4.317-74.093,5.244,4.189-16.779,10.249-32.748,18.171-47.899s17.472-28.439,28.656-39.864c11.184-11.416,23.886-20.623,38.104-27.621,14.21-6.998,29.474-10.497,45.791-10.497,10.249,0,18.871,1.29,25.867,3.853,6.987,2.563,12.465,5.826,16.427,9.789,3.961,3.963,6.751,8.28,8.386,12.942,1.635,4.663,2.453,9.089,2.453,13.279,0,17.251-4.551,31.238-13.637,41.963ZM1134.682,252.461c-11.648,26.576-24.467,53.042-38.45,79.382-13.983,26.34-28.547,51.516-43.692,75.528s-29.71,44.872-43.692,62.586c-3.725-19.578-7.223-41.373-10.485-65.386-3.262-24.013-6.06-48.953-8.386-74.829-2.335-25.876-4.315-51.752-5.942-77.628-1.635-25.876-2.68-50.234-3.144-73.083h-65.716c.927,33.574,2.79,66.903,5.588,100.005,2.798,33.102,6.288,65.158,10.485,96.16,4.197,31.011,8.858,60.731,13.983,89.17,5.124,28.439,10.485,54.543,16.081,78.319h59.419c19.107-22.841,38.795-48.944,59.074-78.319,20.27-29.375,39.613-60.032,58.02-91.97,18.407-31.938,35.542-64.458,51.387-97.56,15.845-33.102,28.892-65.031,39.149-95.806h-65.715c-6.995,22.377-16.317,46.853-27.965,73.429ZM1527.213,197.919c-8.622-8.389-19.806-15.033-33.553-19.932-13.755-4.89-30.182-7.344-49.289-7.344-33.089,0-62.69,6.88-88.784,20.632-26.094,13.752-48.235,32.284-66.407,55.597-18.18,23.313-32.162,50.125-41.948,80.427-9.794,30.302-14.682,61.777-14.682,94.406,0,17.723,2.79,34.501,8.386,50.352,5.596,15.851,14.219,29.721,25.867,41.609,11.648,11.888,26.102,21.213,43.347,27.975,17.244,6.754,37.75,10.135,61.518,10.135,27.965,0,52.314-2.917,73.056-8.735,20.734-5.826,35.77-11.306,45.091-16.441l-5.596-55.242c-2.798,2.327-7.569,4.781-14.328,7.344-6.759,2.563-14.454,5.126-23.077,7.689-8.622,2.563-17.708,4.663-27.257,6.298-9.558,1.636-18.761,2.445-27.611,2.445-20.043,0-36.242-2.091-48.589-6.29-12.356-4.199-22.023-9.907-29.01-17.133-6.995-7.226-11.774-15.615-14.336-25.176-2.562-9.561-3.843-19.704-3.843-30.429v-5.59c0-2.327.228-5.362.699-9.097,17.244-.927,35.534-1.981,54.877-3.145,19.343-1.164,38.45-3.373,57.329-6.644,18.871-3.263,37.042-7.689,54.523-13.288,17.48-5.59,32.744-13.516,45.791-23.777,13.047-10.253,23.54-22.959,31.463-38.11s11.884-33.683,11.884-55.597c0-11.652-2.099-22.959-6.296-33.92-4.197-10.952-10.603-20.623-19.225-29.021ZM1475.48,307.712c-9.086,10.725-21.787,19.24-38.096,25.53-16.317,6.29-35.66,10.716-58.029,13.279-22.369,2.563-47.072,4.317-74.093,5.244,4.189-16.779,10.249-32.748,18.172-47.899,7.923-15.151,17.472-28.439,28.656-39.864,11.184-11.416,23.886-20.623,38.104-27.621,14.21-6.998,29.474-10.497,45.791-10.497,10.249,0,18.871,1.29,25.866,3.853,6.987,2.563,12.465,5.826,16.427,9.789s6.751,8.28,8.386,12.942c1.635,4.663,2.453,9.089,2.453,13.279,0,17.251-4.551,31.238-13.637,41.963ZM1879.902,409.117l53.823-219.596c-12.12-6.526-26.566-11.18-43.338-13.979-16.781-2.799-31.463-4.199-44.046-4.199-42.411,0-79.462,7.226-111.152,21.677-31.69,14.451-58.029,33.338-78.999,56.651-20.969,23.313-36.697,49.889-47.182,79.719-10.485,29.839-15.727,60.377-15.727,91.616,0,19.114,2.208,36.601,6.633,52.452,4.425,15.851,11.302,29.611,20.624,41.263,9.322,11.652,21.324,20.741,36.006,27.267,14.682,6.526,32.272,9.789,52.778,9.789,25.167,0,46.373-4.663,63.617-13.979,17.244-9.325,30.991-18.65,41.248-27.975,1.399,6.998,3.262,13.642,5.588,19.932,2.326,6.29,4.661,12.006,6.996,17.133l57.321-8.398c-4.661-12.58-7.923-24.35-9.785-35.311-1.871-10.961-2.798-21.795-2.798-32.52s.809-20.977,2.444-30.775c1.635-9.789,3.616-20.042,5.95-30.766ZM1816.286,403.518c-1.871,8.861-3.388,17.605-4.551,26.23-1.163,8.625-1.981,16.897-2.444,24.822-10.257,11.197-22.377,20.986-36.351,29.375-13.983,8.398-30.763,12.588-50.334,12.588-13.047,0-23.65-2.445-31.808-7.344-8.159-4.89-14.682-11.188-19.571-18.878-4.897-7.689-8.277-16.551-10.139-26.576-1.871-10.025-2.798-19.932-2.798-29.729,0-24.704,4.071-48.363,12.23-70.975,8.159-22.613,19.806-42.427,34.961-59.441,15.146-17.015,33.435-30.657,54.877-40.918,21.442-10.253,45.437-15.387,72.003-15.387,4.197,0,8.976.236,14.336.7,5.36.472,9.204,1.172,11.53,2.099l-41.939,173.434ZM2055.367,382.541L2146.949,0l-67.814,11.197-88.084,366.445c-3.262,12.597-5.824,24.721-7.687,36.373-1.871,11.652-2.798,22.841-2.798,33.565,0,14.451,1.863,27.739,5.588,39.864,3.725,12.124,9.667,22.613,17.826,31.466,8.159,8.861,18.879,15.969,32.163,21.331,13.283,5.362,29.474,8.271,48.589,8.735l14.674-53.143c-20.97-2.327-35.306-8.162-42.993-17.487s-11.53-21.913-11.53-37.764c0-8.853,1.163-18.178,3.489-27.967s4.661-19.814,6.996-30.075ZM2326.611,38.118c-7.459-6.762-16.545-10.143-27.266-10.143-11.656,0-22.141,4.317-31.463,12.942-9.322,8.625-13.974,20.396-13.974,35.311,0,11.661,3.607,20.75,10.83,27.276,7.223,6.526,16.191,9.789,26.911,9.789,11.184,0,21.669-4.309,31.463-12.934,9.785-8.625,14.682-19.932,14.682-33.919,0-12.116-3.734-21.559-11.184-28.321ZM2151.142,542.687h65.016l87.385-363.655h-65.016l-87.385,363.655ZM2542.62,531.499l-4.888-55.251c-6.996,3.735-17.017,7.816-30.064,12.242-13.047,4.435-26.33,6.644-39.849,6.644-19.571,0-33.553-3.381-41.939-10.143-8.395-6.762-12.583-17.832-12.583-33.22,0-16.315,2.79-35.429,8.386-57.342l38.45-160.846h123.736l13.283-54.551h-123.736l27.266-112.593-67.814,11.188-74.801,311.203c-6.524,29.847-9.785,54.324-9.785,73.429,0,29.375,8.15,51.76,24.468,67.139,16.309,15.379,41.939,23.077,76.9,23.077,21.433,0,40.54-2.454,57.321-7.344,16.772-4.89,28.656-9.435,35.651-13.634ZM2870.49,179.032c-3.27,13.988-8.631,32.52-16.081,55.597-7.459,23.085-16.663,48.379-27.611,75.883-10.957,27.503-23.658,56.297-38.104,86.363-14.446,30.075-30.527,59.096-48.235,87.071-6.523-24.704-12.238-50.58-17.126-77.628-4.897-27.039-9.094-53.961-12.583-80.773-3.498-26.803-6.178-52.679-8.041-77.62-1.863-24.94-3.026-47.907-3.489-68.893h-66.415c2.326,64.34,8.968,127.744,19.925,190.221,10.948,62.477,25.049,121.918,42.293,178.333-16.781,21.441-34.607,38.692-53.486,51.752-18.879,13.043-41.83,19.578-68.851,19.578-9.794,0-18.643-1.282-26.566-3.845-7.923-2.563-14.21-5.716-18.879-9.443l-22.369,53.152c5.133,3.727,13.291,7.217,24.467,10.489,11.193,3.255,23.304,4.89,36.351,4.89,25.63,0,48.699-4.081,69.205-12.234,20.506-8.17,39.267-19.358,56.276-33.565,17.008-14.224,32.971-31.011,47.89-50.352,14.918-19.358,29.828-39.982,44.746-61.895,19.57-29.367,37.624-60.023,54.169-91.961,16.545-31.938,31.463-63.168,44.746-93.706,13.283-30.539,24.585-58.978,33.907-85.317,9.322-26.34,16.545-48.371,21.669-66.094h-67.806Z" style="fill:#28116F; fill-rule:evenodd; stroke-width:0px;"/></g></g><g id="c" style="isolation:isolate;"><g id="d"><path d="M183.488,282.492h-45.108l28.235-117.582-34.314-115.409-6.919-21.183L0,551.977h74.159l49.695-209.004h58.869c6.618,0,13.248-.12,19.878-.383,5.516-.209,11.04-.532,16.565-.924l.012-.261-17.688-59.301c-6.041.249-12.045.388-18.002.388ZM464.107,38.137C430.967,13.883,386.121,1.756,329.543,1.756c-21.408,0-44.095.808-68.047,2.425-22.67,1.53-44.172,4.776-64.553,9.676l18.383,61.365s10.262-1.507,18.49-2.315c11.008-1.081,20.802-2.315,20.802-2.315h3.082v.014c9.615-1.699,30.491-2.558,62.668-2.558,34.656,0,62.814,6.467,84.485,19.403,21.659,12.935,32.494,34.498,32.494,64.676,0,28.03-5.734,50.529-17.202,67.506-11.469,16.978-26.258,30.191-44.345,39.614-18.099,9.436-38.109,15.765-60.019,18.999-13.14,1.938-26.091,3.283-38.862,4.06l.042.46,24.643,84.831c3.438,7.098,7.013,14.626,10.737,22.62,7.896,16.977,15.793,35.168,23.701,54.571,7.896,19.403,15.674,39.614,23.319,60.634,5.703,15.68,11.26,31.211,16.681,46.591l76.598.018c-5.022-16.625-10.63-33.642-16.821-51.055-8.16-22.902-16.57-44.996-25.231-66.293-8.673-21.285-17.083-40.688-25.231-58.209-8.159-17.508-15.292-31.934-21.408-43.252,47.403-14.009,84.222-37.05,110.481-69.123,26.246-32.06,39.375-71.814,39.375-119.247,0-46.89-16.57-82.463-49.697-106.716Z" style="fill:#28116F; fill-rule:evenodd; stroke-width:0px;"/></g></g></svg>