<?xml version="1.0" encoding="UTF-8"?><svg id="a" xmlns="http://www.w3.org/2000/svg" viewBox="0 0 4563.462 1576.454"><path d="M1802.079,685.443c-24.043,0-48.497,1.725-73.345,7.192-24.864,6.519-47.675,12.321-68.434,20.534l-96.837,405.745h53.187l89.451-372.069c14.208-4.378,28.428-6.693,42.635-9.856,14.208-2.183,28.428-3.286,42.824-3.286,22.238,0,44.102,3.286,65.426,9.856l13.936-48.459c-10.386-3.824-21.31-6.57-32.786-8.213-10.684-1.643-23.491-1.444-36.056-1.444Z" style="fill:#1e1e1e; stroke-width:0px;"/><path d="M2981.666,714.401c-19.53-19.982-49.613-28.958-88.219-28.958-38.854,0-73.449,7.335-103.812,24.031-30.365,16.708-55.945,38.744-76.731,66.118-20.798,27.386-36.518,58.316-46.905,92.811-10.952,34.498-16.285,69.275-16.285,104.31,0,22.999,2.733,44.084,8.735,63.245,4.935,19.173,14.103,35.599,28.46,49.281,11.353,13.692,28.047,24.37,48.563,32.031,20.516,7.662,45.815,11.499,75.91,11.499,22.979,0,45.674-2.875,68.113-8.624,22.427-5.749,42.944-13.821,61.549-24.231l-5.745-49.279c-17.516,10.959-35.98,19.929-55.393,24.639-19.427,5.481-38.711,8.865-57.856,8.865-24.618,0-43.386-3.654-60.317-9.686-15.593-6.018-27.773-14.091-36.518-23.683-8.759-10.672-14.772-22.582-18.056-36.276-3.282-13.68-4.923-28.463-4.923-42.785v-18.815c46.496-2.183,89.885-5.75,126.791-10.678,38.018-4.929,70.574-13.001,97.656-24.231,27.081-11.216,48.929-26.41,63.19-45.584,15.042-19.161,22.568-44.07,22.568-74.742,0-32.855-9.661-59.266-30.775-79.26ZM2944.534,890.571c-12.607,0-12.586-19.56,0-19.56s12.586,19.56,0,19.56ZM2945.968,839.246c-6.463,12.321-21.465,22.869-41.441,31.622-19.427,8.765-43.3,15.605-76.731,20.534-31.736,4.927-70.857,7.943-117.351,9.035,5.461-22.095,13.809-43.8,25.029-64.066,11.208-20.25,24.479-38.05,40.278-53.386,14.834-15.323,32.068-27.515,51.225-36.55,19.143-9.035,39.659-13.553,61.549-13.553,20.784,0,37.608,5.34,50.468,16.405,12.849,10.288,19.286,26.306,19.286,47.662,0,15.886-4.104,29.977-12.311,42.298Z" style="fill:#1e1e1e; stroke-width:0px;"/><path d="M355.029,977.417h168.747c18.97,0,37.975-.342,56.98-1.096,15.81-.411,31.644-1.478,47.482-2.421l.035-.975-50.695-169.897c-17.323,1.122-34.529,1.088-51.61,1.088h-129.301l80.935-336.919-98.364-330.707-19.827-60.681L0,1576.296h212.578l142.451-598.879Z" style="fill:#1e1e1e; stroke-width:0px;"/><path d="M2599.655,695.985c-9.32,27.323-20.09,58.662-37.416,92.336-15.63,33.676-32.761,67.35-51.405,101.026-18.644,34.431-37.686,65.707-57.15,96.097-19.466,30.39-37.418,56.543-52.465,79.478-7.904-25.129-13.725-52.501-18.881-81.995-5.154-31.837-9.616-63.6-13.412-96.455-3.795-32.853-6.77-65.707-8.937-98.56-2.179-32.855-3.527-64.066-4.065-91.927h-52.522c1.078,74.961,7.053,149.703,17.913,222.52,10.862,72.831,23.081,139.628,36.661,200.408h52.52c23.57-28.466,47.534-60.227,71.923-95.276,24.387-35.035,47.262-69.502,68.639-107.467,21.375-37.829,40.827-75.693,58.368-113.474,17.541-37.782,31.787-73.92,44.387-106.711h-54.159Z" style="fill:#1e1e1e; stroke-width:0px;"/><path d="M2119.577,685.443c-38.852,0-73.447,7.335-103.81,24.031-30.365,16.708-55.947,38.744-76.731,66.118-20.798,27.386-36.52,58.316-47.188,92.811-10.668,34.498-16.002,69.275-16.002,104.31,0,22.999,2.731,44.084,8.207,63.245,5.461,19.173,14.629,35.599,27.491,49.281,13.041,13.692,29.543,24.37,50.693,32.031,19.881,7.662,45.181,11.499,75.276,11.499,22.977,0,45.674-2.875,68.113-8.624,22.427-5.749,42.943-13.821,61.549-24.231l-5.745-49.279c-17.516,10.959-35.98,19.929-55.393,24.639-19.427,5.481-37.199,8.865-57.856,8.865-24.62,0-44.726-3.654-60.319-9.686-15.591-6.018-27.773-14.091-36.518-23.683-8.757-10.672-14.772-22.582-18.054-36.276-3.282-13.68-4.149-28.463-4.149-42.785v-18.815c45.719-2.183,87.982-5.75,126.014-10.678,38.018-4.929,70.576-13.001,97.656-24.231,27.083-11.216,48.137-26.41,64.915-45.584,13.316-19.161,20.843-44.07,20.843-74.742,0-32.855-10.257-59.266-30.773-79.26-20.516-19.982-49.932-28.958-88.221-28.958ZM2172.099,839.246c-8.207,12.321-22.03,22.869-41.443,31.622-19.425,8.765-45.007,15.605-76.729,20.534-31.542,4.927-70.681,7.943-117.353,9.035,6.026-22.095,13.809-43.8,25.664-64.066,10.572-20.25,23.843-38.05,39.167-53.386,15.311-15.323,32.931-27.515,51.7-36.55,19.145-9.035,41.299-13.553,61.549-13.553,20.786,0,37.61,5.34,51.984,16.405,11.335,10.288,17.77,26.306,17.77,47.662,0,15.886-4.102,29.977-12.309,42.298Z" style="fill:#1e1e1e; stroke-width:0px;"/><path d="M4106.336,1058.133c-14.284,6.572-27.888,11.783-40.802,17.332-11.609,3.169-28.158,4.675-45.725,4.675s-33.236-5.579-45.314-15.435c-12.08-9.856-18.106-27.104-18.106-51.323,0-11.37.949-22.457,2.873-33.369,1.911-11.534,4.231-22.083,6.975-31.939l50.046-207.801h150.769l11.587-44.288h-150.431l31.581-136.408-55.663,9.856-91.09,378.641c-7.669,30.672-11.489,57.776-11.489,81.312,0,19.174,2.871,35.049,8.616,47.638,5.745,12.602,13.426,22.728,24.761,30.39,7.847,7.675,18.965,13.723,32.411,16.428,11.789,3.284,25.228,4.927,39.485,4.927,18.093,0,36.327-2.194,54.701-6.57,18.556-4.378,34.955-9.575,50.928-15.607l-6.112-48.46Z" style="fill:#1e1e1e; stroke-width:0px;"/><path d="M3846.218,526.725c-9.31,0-17.926,3.695-25.85,11.088-7.939,7.392-11.9,18.21-11.9,32.442,0,10.602,2.731,18.764,8.207,25.052,5.461,6.3,13.668,9.445,25.164,9.445,8.199,0,16.958-3.556,25.715-10.678,8.745-7.11,13.131-16.387,13.131-30.39,0-10.948-3.014-19.842-9.027-26.693-6.026-6.84-14.502-10.267-25.44-10.267Z" style="fill:#1e1e1e; stroke-width:0px;"/><path d="M3369.692,957.109l63.188-255.439c-31.21-11.497-63.792-16.227-97.721-16.227-41.07,0-78.986,5.833-113.748,19.513-34.762,13.694-64.87,32.995-90.335,57.905-25.467,24.923-45.303,55.172-59.536,90.759-14.232,35.599-21.349,76.262-21.349,119.094,0,27.388,3.693,51.065,11.092,71.047,7.943,19.994,18.486,36.28,29.197,48.87,12.053,12.602,26.03,21.907,41.93,28.506,15.898,5.438,32.606,8.454,50.147,8.454,22.466,0,44.264-4.389,65.371-13.142,21.105-8.751,41.25-22.445,60.432-41.066,1.078,8.765,3.251,17.388,5.309,25.872,2.449,8.495,5.309,16.016,8.579,22.587l54.83-8.215c-6.044-15.875-12.041-30.388-14.772-43.53-2.744-13.142-3.223-27.104-3.223-41.889,0-10.946.209-22.445,2.402-34.496,2.179-11.122,4.923-24.91,8.207-38.603ZM3326.414,916.041c-3.834,15.337-7.935,32.585-12.309,51.745-4.385,19.173-6.564,36.139-6.564,50.922-17.555,20.434-36.199,34.909-55.945,45.586-19.748,10.678-40.855,16.016-63.331,16.016-11.529,0-22.363-2.054-32.506-6.159-10.142-4.108-19.053-10.678-26.734-19.713-7.681-9.034-13.708-21.074-18.093-36.139-4.385-14.051-6.578-33.805-6.578-56.264,0-28.463,4.796-56.389,14.386-83.777,9.592-27.374,23.427-51.745,41.52-73.099,19.753-21.355,40.276-37.723,66.587-51.745,26.312-13.142,56.459-19.712,90.439-19.712,8.771,0,17.26.552,25.49,3.28,8.221-.534,17.26,1.109,27.749,3.29l-44.111,175.768Z" style="fill:#1e1e1e; stroke-width:0px;"/><polygon points="3685.536 1118.914 3738.021 1118.914 3840.6 695.985 3787.411 695.985 3685.536 1118.914" style="fill:#1e1e1e; stroke-width:0px;"/><path d="M4490.053,760.396c-9.553,28.209-21.696,59.831-34.897,94.865-16.266,35.049-33.461,72.42-53.105,112.115-19.657,40.041-41.762,78.99-66.318,117.864-10.464-33.394-19.286-67.761-26.441-103.08-7.155-35.317-13.221-69.942-16.62-103.9-6.512-33.944-10.23-66.529-12.706-97.74-1.905-31.21-4.27-59.957-5.371-84.534h-55.311c1.7,68.389,10.836,141.378,22.599,215.95,13.209,75.024,31.353,148.944,54.459,221.763-23.03,31.21-47.97,54.478-74.82,69.813-26.85,15.323-54.251,22.998-82.206,22.998-18.644,0-35.35-4.107-50.149-12.32l-17.363,44.354c11.055,6.57,23.108,11.327,34.597,12.318,11.515,1.643,22.183,2.465,32.057,2.465,42.725,0,83.808-14.374,123.25-41.52,39.442-30.349,80.451-76.215,122.444-139.176,27.286-39.777,51.442-81.995,72.459-124.434,21.003-42.427,38.877-81.995,54.153-118.685,14.216-36.679,25.95-68.853,35.227-96.508,8.188-27.644,14.189-47.227,17.471-57.019h-52.522c-4.372,14.181-11.335,36.215-20.888,64.411Z" style="fill:#1e1e1e; stroke-width:0px;"/><path d="M3558.045,909.471l102.2-427.922-53.848,9.856-106.697,437.778c-3.834,15.889-6.848,32.561-9.027,45.584-2.193,14.515-1.577,28.336-1.577,41.479,0,29.568,6.179,54.079,21.964,73.509,15.785,19.443,43.546,31.622,83.282,36.55l12.915-46.165c-14.824-3.936-26.404-7.761-35.392-12.151-8.99-4.376-15.939-9.445-20.837-15.194-4.9-5.749-8.168-10.719-9.797-19.712-1.641-7.392-2.449-15.464-2.449-24.229,0-14.234,2.052-29.698,6.155-46.408,4.104-16.696,8.335-34.355,13.107-52.976Z" style="fill:#1e1e1e; stroke-width:0px;"/><path d="M1030.699,1442.902c15.754,44.929,31.683,89.433,47.221,133.5l219.572.052c-14.395-47.637-30.476-96.399-48.223-146.293-23.389-65.623-47.497-128.93-72.325-189.956-24.861-60.991-48.969-116.587-72.324-166.791-23.388-50.168-43.833-91.504-61.365-123.935,136.214-40.141,241.422-106.163,316.691-198.065,75.973-91.865,112.87-205.774,112.87-341.474,0-134.575-47.498-236.503-142.457-305.999C1235.365,34.445,1106.812,0,944.632,0c-61.366,0-126.397,2.012-195.056,6.646-64.977,4.382-126.642,13.629-185.059,27.666l52.714,175.895s29.416-4.317,53.002-6.633c31.553-3.096,59.627-6.632,59.627-6.632h8.835l.003.041c27.558-4.869,87.399-7.33,179.634-7.33,99.342,0,180.056,18.532,242.176,55.597,62.084,37.065,93.144,98.851,93.144,185.323,0,80.318-16.437,144.784-49.312,193.432-32.874,48.647-75.269,86.508-127.115,113.51-51.88,27.038-109.239,45.173-171.296,54.439-38.409,5.553-75.538,9.429-112.142,11.654l.118,1.298,70.629,243.043c9.854,20.337,20.112,41.941,30.786,65.701,22.634,47.792,45.27,99.914,67.94,155.512,22.636,56.118,45.739,113.51,67.439,173.74Z" style="fill:#1e1e1e; stroke-width:0px;"/></svg>